<?xml version="1.0" standalone="no"?>
<!DOCTYPE svg PUBLIC "-//W3C//DTD SVG 1.1//EN" "http://www.w3.org/Graphics/SVG/1.1/DTD/svg11.dtd" >
<svg xmlns="http://www.w3.org/2000/svg">
<metadata>Generated by IcoMoon</metadata>
<defs>
<font id="icomoon" horiz-adv-x="1024">
<font-face units-per-em="1024" ascent="960" descent="-64" />
<missing-glyph horiz-adv-x="1024" />
<glyph unicode="&#x20;" horiz-adv-x="512" d="" />
<glyph unicode="&#xe900;" glyph-name="attachment" d="M946.711 835.463c-103.246 103.246-270.947 103.246-374.193 0l-514.479-514.479c-77.58-77.58-77.58-202.992 0-280.572 63.872-63.872 160.118-74.080 235.657-32.665 7.875 0.292 15.749 3.5 21.582 9.333l514.479 514.479c51.623 51.623 51.623 135.328 0 186.951s-135.328 51.623-186.951 0l-420.858-420.858c-12.833-12.833-12.833-33.832 0-46.665s33.832-12.833 46.665 0l420.858 420.858c25.957 25.957 67.664 25.957 93.621 0s25.957-67.664 0-93.621l-491.147-491.147c-51.623-51.623-135.328-51.623-186.951 0s-51.623 135.328 0 186.951l514.187 514.771c77.58 77.58 202.992 77.58 280.572 0s77.58-202.992 0-280.572l-467.523-467.814c-12.833-12.833-12.833-33.832 0-46.665s33.832-12.833 46.665 0l467.814 467.523c103.246 103.246 103.246 270.947 0 374.193z" />
<glyph unicode="&#xe901;" glyph-name="contact-info" d="M896 960h-768c-52.8 0-96-43.2-96-96v-832c0-52.8 43.2-96 96-96h768c52.8 0 96 43.2 96 96v832c0 52.8-43.2 96-96 96zM288 512c0 35.2 43.2 64 96 64h64c-53 0-96 43-96 96s43 96 96 96 96-43 96-96-43-96-96-96h64c52.8 0 96-28.8 96-64v-64h-320v64zM736 192h-448v64h448v-64zM736 320h-448v64h448v-64z" />
<glyph unicode="&#xe902;" glyph-name="jobrole-skill" d="M640.1 283.471c0-9.808-3.603-18.414-10.808-25.62s-15.812-10.808-25.82-10.808h-182.943c-10.008 0-18.414 3.603-25.82 10.808-7.206 7.206-10.808 15.812-10.808 25.62v91.471h-383.9v-274.214c0-25.22 9.007-46.636 26.821-64.651 17.814-17.814 39.431-26.821 64.651-26.821h841.257c25.22 0 46.636 9.007 64.651 26.821 17.814 17.814 26.821 39.431 26.821 64.651v274.214h-384.1v-91.471zM438.943 374.743h146.314v-73.057h-146.314v73.057zM997.179 713.608c-17.814 17.814-39.431 26.821-64.651 26.821h-201.157v91.471c0 15.212-5.404 28.222-16.013 38.83s-23.618 16.013-38.83 16.013h-329.057c-15.212 0-28.222-5.404-38.83-16.013s-16.013-23.618-16.013-38.83v-91.471h-201.157c-25.22 0-46.636-9.007-64.651-26.821-17.814-17.814-26.821-39.231-26.821-64.45v-219.371h1024v219.371c0 25.22-8.807 46.636-26.821 64.45zM658.314 740.629h-292.629v73.057h292.629v-73.057z" />
<glyph unicode="&#xe903;" glyph-name="pay-rate" d="M512 960c-282.8 0-512-229.2-512-512s229.2-512 512-512c282.8 0 512 229.2 512 512s-229.2 512-512 512zM651.6 250.4c-25.2-28.2-61.6-44.8-109.2-49.8v-72.6h-60.6v72c-79.4 8.2-128.4 54.2-147.4 138.2l93.8 24.4c8.6-52.8 37.4-79.2 86.2-79.2 22.8 0 39.6 5.6 50.4 17s16.2 25 16.2 41c0 16.6-5.4 29.2-16.2 37.6-10.8 8.6-34.6 19.4-71.8 32.6-33.4 11.6-59.4 23-78.2 34.4-18.8 11.2-34 27-45.6 47.4s-17.6 44.2-17.6 71.2c0 35.4 10.6 67.4 31.4 95.8s53.8 45.6 98.6 52v55.6h60.6v-56c67.8-8.2 111.6-46.4 131.6-115l-83.6-34.2c-16.4 47-41.4 70.6-75.6 70.6-17.2 0-30.8-5.2-41.2-15.8s-15.6-23.2-15.6-38.2c0-15.2 5-27 15-35.2s31.4-18.2 64.2-30.2c36-13.2 64.2-25.6 84.6-37.2 20.6-11.6 36.8-27.8 49-48.4s18.4-44.6 18.4-72.2c0.4-42.4-12.2-77.8-37.4-105.8z" />
<glyph unicode="&#xe904;" glyph-name="working-time" d="M983.174 647.278c-54.044 125.825-145.736 217.349-272.565 271.561-63.582 27.106-130.008 40.826-199.446 40.826s-135.362-13.72-198.776-40.826c-125.825-54.044-218.018-145.401-272.063-271.561-27.106-63.080-40.324-129.339-40.324-198.776s13.218-136.199 40.324-199.278c54.044-125.992 146.238-218.018 272.063-272.063 63.414-27.106 129.339-40.826 198.776-40.826s135.864 13.888 199.278 40.826c126.996 54.212 218.688 146.238 272.732 272.063 27.106 63.414 40.826 129.841 40.826 199.278s-13.72 135.362-40.826 198.776zM700.403 251.399c-11.21-11.21-31.958-11.21-43.169 0l-167.488 167.32c-6.693 6.693-9.537 15.059-8.366 25.265 0 1.673-1.171 3.848-1.171 4.518v294.484c0 17.401 14.557 31.289 30.787 31.289 17.401 0 32.46-14.055 32.46-31.289v-289.966l156.779-157.95c12.214-12.047 13.051-30.787 0.167-43.671z" />
<glyph unicode="&#xe905;" glyph-name="camera" d="M372.364 843.636l-58.182-116.364h-232.727c-45.382 0-81.455-36.073-81.455-81.455v-512c0-45.382 36.073-81.455 81.455-81.455h861.091c45.382 0 81.455 36.073 81.455 81.455v512c0 45.382-36.073 81.455-81.455 81.455h-232.727l-58.182 116.364h-279.273zM512 634.182c134.982 0 244.364-109.382 244.364-244.364s-109.382-244.364-244.364-244.364-244.364 109.382-244.364 244.364 109.382 244.364 244.364 244.364zM512 564.364c-96.582 0-174.545-77.964-174.545-174.545s77.964-174.545 174.545-174.545 174.545 77.964 174.545 174.545-77.964 174.545-174.545 174.545z" />
<glyph unicode="&#xe906;" glyph-name="back-arrow" horiz-adv-x="584" d="M0 448c0 18.359 7.026 36.717 21.078 50.769l440.152 440.152c28.104 28.104 73.434 28.104 101.539 0s28.104-73.434 0-101.312l-389.61-389.61 389.61-389.61c28.104-28.104 28.104-73.434 0-101.312-28.104-28.104-73.434-28.104-101.539 0l-440.152 440.152c-14.052 14.052-21.078 32.411-21.078 50.769z" />
<glyph unicode="&#xe907;" glyph-name="next-arrow" horiz-adv-x="584" d="M583.848 448c0-18.359-7.026-36.717-21.078-50.769l-440.379-440.379c-28.104-28.104-73.434-28.104-101.539 0s-28.104 73.434 0 101.312l389.61 389.61-389.383 389.836c-28.104 27.878-28.104 73.434 0 101.312 27.878 28.104 73.434 28.104 101.312 0l440.379-440.379c14.052-13.826 21.078-32.184 21.078-50.543z" />
<glyph unicode="&#xe908;" glyph-name="picture" d="M998.97 832.607c-16.625 16.625-36.798 25.030-60.334 25.030h-853.271c-23.536 0-43.523-8.406-60.334-25.030-16.625-16.811-25.030-36.798-25.030-60.334v-648.546c0-23.536 8.406-43.523 25.030-60.334 16.811-16.625 36.798-25.030 60.334-25.030h853.271c23.536 0 43.523 8.406 60.334 25.030 16.625 16.625 25.030 36.798 25.030 60.334v648.546c0 23.536-8.406 43.523-25.030 60.334zM955.634 123.727c0-4.67-1.681-8.592-5.043-11.955s-7.472-5.043-11.955-5.043h-853.271c-4.67 0-8.592 1.681-11.955 5.043s-5.043 7.285-5.043 11.955v648.546c0 4.67 1.681 8.592 5.043 11.955s7.472 5.043 11.955 5.043h853.271c4.67 0 8.592-1.681 11.955-5.043s5.043-7.285 5.043-11.955v-648.546zM238.908 516.366c28.393 0 52.676 9.9 72.476 29.887 19.987 19.987 29.887 44.083 29.887 72.476s-9.9 52.676-29.887 72.476c-19.987 19.987-44.083 29.887-72.476 29.887s-52.676-9.9-72.476-29.887c-19.987-19.987-29.887-44.083-29.887-72.476s9.9-52.676 29.887-72.476c19.8-19.987 44.083-29.887 72.476-29.887zM392.452 362.636l-85.178 85.364-170.729-170.542v-102.549h750.908v238.908l-221.91 221.91z" />
<glyph unicode="&#xe909;" glyph-name="clock" d="M512 960c-282.624 0-512-229.376-512-512s229.376-512 512-512 512 229.376 512 512-229.376 512-512 512zM733.184 350.72h-217.088c-0.683 0-1.365 0.341-2.048 0.341s-1.365-0.341-2.048-0.341c-19.456 0-35.499 15.701-35.499 35.499v361.472c0 19.456 15.701 35.499 35.499 35.499s35.499-15.701 35.499-35.499v-325.973h186.027c19.456 0 35.499-15.701 35.499-35.499-0.341-19.797-16.043-35.499-35.84-35.499z" />
<glyph unicode="&#xe90a;" glyph-name="emergency-contact" d="M778.547 282.66c-33.452 33.025-75.213 33.025-108.451 0-25.355-25.142-50.71-50.284-75.639-75.852-6.818-7.031-12.571-8.523-20.881-3.835-16.406 8.949-33.878 16.193-49.645 25.994-73.508 46.236-135.084 105.681-189.63 172.584-27.060 33.238-51.136 68.821-67.968 108.877-3.409 8.097-2.77 13.423 3.835 20.028 25.355 24.503 50.071 49.645 75 74.787 34.73 34.943 34.73 75.852-0.213 111.008-19.815 20.028-39.63 39.63-59.446 59.659-20.454 20.454-40.696 41.122-61.363 61.363-33.452 32.599-75.213 32.599-108.451-0.213-25.568-25.142-50.071-50.923-76.065-75.639-24.077-22.798-36.221-50.71-38.778-83.309-4.048-53.054 8.949-103.124 27.273-151.917 37.5-100.994 94.602-190.695 163.849-272.939 93.536-111.221 205.184-199.218 335.794-262.712 58.806-28.551 119.744-50.497 186.007-54.119 45.596-2.557 85.227 8.949 116.974 44.531 21.733 24.29 46.236 46.449 69.247 69.673 34.091 34.517 34.304 76.278 0.426 110.369-40.483 40.696-81.179 81.179-121.874 121.661zM737.851 452.474l78.622 13.423c-12.358 72.23-46.449 137.641-98.224 189.63-54.758 54.758-124.005 89.275-200.283 99.928l-11.079-79.048c59.020-8.31 112.712-34.943 155.113-77.343 40.057-40.057 66.264-90.767 75.852-146.59zM860.791 794.234c-90.767 90.767-205.61 148.082-332.385 165.766l-11.079-79.048c109.516-15.341 208.806-64.985 287.214-143.181 74.36-74.36 123.153-168.323 140.837-271.66l78.622 13.423c-20.667 119.744-77.13 228.408-163.209 314.7z" />
<glyph unicode="&#xe90b;" glyph-name="handsets" d="M728.759 960h-433.518c-41.109 0-71.007-33.635-71.007-74.745v-874.511c0-41.109 33.635-74.745 74.745-74.745h429.781c41.109 0 74.745 33.635 74.745 74.745v874.511c0 41.109-33.635 74.745-74.745 74.745zM407.358 915.153h213.022c3.737 0 11.212-7.474 11.212-18.686s-3.737-18.686-11.212-18.686h-213.022c-3.737 0-11.212 7.474-11.212 18.686s3.737 18.686 11.212 18.686zM512 7.007c-26.161 0-48.584 22.423-48.584 48.584s22.423 48.584 48.584 48.584c26.161 0 48.584-22.423 48.584-48.584s-22.423-48.584-48.584-48.584zM747.445 171.445h-470.891v661.489h470.891v-661.489z" />
<glyph unicode="&#xe90c;" glyph-name="termination" d="M175.479 688.276c0-149.739 121.537-271.5 271.5-271.5s271.5 121.761 271.5 271.5c0 149.963-121.537 271.724-271.5 271.724-150.187 0-271.5-121.761-271.5-271.724zM86.844 63.804c44.541-31.112 140.338-70.953 339.767-70.953 69.162 0 127.357 4.253 176.598 10.967-19.92 33.574-31.559 72.519-31.559 114.151 0 121.761 97.364 220.915 218.453 224.497-14.325 30.664-32.455 61.552-55.509 91.097-12.31 15.892-35.141 33.126-56.852 44.989-56.852-63.566-138.995-103.855-230.764-103.855s-173.912 40.289-230.54 103.855c-21.487-12.087-43.422-29.545-55.509-45.213-38.946-50.808-99.155-149.291-108.555-282.020-2.238-28.426 11.191-71.176 34.469-87.516zM790.103 299.94c-100.497 0-181.97-81.472-181.97-181.97s81.472-181.97 181.97-181.97c100.497 0 181.97 81.472 181.97 181.97s-81.472 181.97-181.97 181.97zM879.857 84.396h-182.641c-11.639 0-21.040 9.401-21.040 21.040s9.401 21.040 21.040 21.040h182.641c11.639 0 21.040-9.401 21.040-21.040s-9.401-21.040-21.040-21.040z" />
<glyph unicode="&#xe90d;" glyph-name="dropdown-arrow" d="M512 156.076c-18.359 0-36.717 7.026-50.769 21.078l-440.152 440.152c-28.104 28.104-28.104 73.434 0 101.539s73.434 28.104 101.312 0l389.61-389.61 389.61 389.61c28.104 28.104 73.434 28.104 101.312 0 28.104-28.104 28.104-73.434 0-101.539l-440.152-440.152c-14.052-14.052-32.411-21.078-50.769-21.078z" />
<glyph unicode="&#xe90e;" glyph-name="close" d="M601.6 448l403.2 403.2c25.6 25.6 25.6 66.133 0 89.6-25.6 25.6-66.133 25.6-89.6 0l-403.2-401.067-403.2 401.067c-25.6 25.6-66.133 25.6-89.6 0-25.6-25.6-25.6-66.133 0-89.6l401.067-403.2-401.067-401.067c-25.6-25.6-25.6-66.133 0-89.6 12.8-14.933 27.733-21.333 44.8-21.333s32 6.4 44.8 19.2l403.2 403.2 403.2-403.2c12.8-12.8 29.867-19.2 44.8-19.2s32 6.4 44.8 19.2c25.6 25.6 25.6 66.133 0 89.6l-403.2 403.2z" />
<glyph unicode="&#xe90f;" glyph-name="transfer" d="M1024 192h-768v-128l-256 192 256 192v-128h768zM0 576h768v-128l256 192-256 192v-128h-768z" />
<glyph unicode="&#xe910;" glyph-name="location-marker" d="M512 960c-204.4 0-370.8-166.4-370.8-370.8 0-253.8 331.8-626.4 346-642 13.2-14.8 36.4-14.8 49.6 0 14.2 15.8 346 388.2 346 642 0 204.4-166.4 370.8-370.8 370.8zM512 402.6c-102.8 0-186.6 83.8-186.6 186.6s83.8 186.6 186.6 186.6 186.6-83.8 186.6-186.6-83.8-186.6-186.6-186.6z" />
<glyph unicode="&#xe911;" glyph-name="approve" horiz-adv-x="1147" d="M480.701-64l-480.701 408.065 114.565 134.644 334.837-284.051 553.928 765.343 143.502-103.935z" />
<glyph unicode="&#xe912;" glyph-name="decline" d="M512-33.549c-265.432 0-481.549 215.848-481.549 481.549s216.118 481.549 481.549 481.549c265.432 0 481.549-215.848 481.549-481.549s-216.118-481.549-481.549-481.549zM291.84 148.884l34.223-19.941c56.32-32.876 120.455-50.392 185.937-50.392 203.722 0 369.448 165.726 369.448 369.448 0 65.213-17.516 129.617-50.392 185.937l-19.941 34.223-519.276-519.276zM512 817.448c-203.722 0-369.448-165.726-369.448-369.448 0-65.213 17.516-129.617 50.392-185.937l19.941-34.223 519.276 519.276-34.223 20.211c-56.32 32.876-120.724 50.122-185.937 50.122z" />
<glyph unicode="&#xe913;" glyph-name="warning" d="M994.991 246.415l-336.283 582.767c-30.302 52.475-86.288 84.81-146.893 84.81s-116.59-32.335-146.893-84.81l-342.196-592.745c-30.302-52.475-30.302-117.145 0-169.62s86.288-84.81 146.893-84.81h684.391c0.185 0 0.37 0 0.37 0 93.679 0 169.62 75.941 169.62 169.62 0 35.106-10.717 67.811-29.009 94.787zM584.43 189.69c0-40.095-30.857-70.767-72.43-70.767s-72.43 30.672-72.43 70.767v1.663c0 39.911 30.857 70.767 72.43 70.767s72.43-30.672 72.43-70.767v-1.663zM586.093 666.769l-35.846-313.002c-2.402-22.542-17.368-36.585-38.248-36.585s-35.846 14.227-38.248 36.585l-35.846 313.187c-2.402 24.205 10.717 42.497 33.259 42.497h81.484c22.542-0.185 35.846-18.477 33.444-42.682z" />
<glyph unicode="&#xe914;" glyph-name="more-column" d="M995.119 891.676c-19.182 19.182-42.46 28.881-69.617 28.881h-827.002c-27.157 0-50.219-9.699-69.617-28.881-19.182-19.182-28.881-42.46-28.881-69.617v-748.333c0-27.157 9.699-50.219 28.881-69.617 19.182-19.182 42.46-28.881 69.617-28.881h827.002c27.157 0 50.219 9.699 69.617 28.881 19.182 19.182 28.881 42.46 28.881 69.617v748.333c0 27.157-9.699 50.435-28.881 69.617zM472.665 54.112h-374.166c-5.388 0-9.915 1.94-13.794 5.819s-5.819 8.406-5.819 13.794v689.276h393.78v-708.89zM945.115 73.941c0-5.388-1.94-9.915-5.819-13.794s-8.406-5.819-13.794-5.819h-374.166v708.674h393.78v-689.061z" />
<glyph unicode="&#xe915;" glyph-name="add-employee" d="M446.979 383.203c149.963 0 271.5 121.761 271.5 271.5 0 149.963-121.537 271.724-271.5 271.724s-271.5-121.761-271.5-271.724c0-149.739 121.313-271.5 271.5-271.5zM790.103 299.94c-100.497 0-181.97-81.472-181.97-181.97s81.472-181.97 181.97-181.97 181.97 81.472 181.97 181.97c0 100.497-81.472 181.97-181.97 181.97zM879.857 84.396h-70.281v-70.281c0-11.639-9.401-21.040-21.040-21.040s-21.040 9.401-21.040 21.040v70.281h-70.281c-11.639 0-21.040 9.401-21.040 21.040s9.401 21.040 21.040 21.040h70.505v70.281c0 11.639 9.401 21.040 21.040 21.040s21.040-9.401 21.040-21.040v-70.057h70.057c11.639 0 21.040-9.401 21.040-21.040 0-11.863-9.401-21.263-21.040-21.263zM790.103 342.243c-14.325 30.664-32.455 61.552-55.509 91.097-9.401 11.863-24.397 24.621-40.512 35.141-56.628-74.981-146.382-123.328-247.103-123.328s-190.251 48.346-246.879 122.88c-15.668-10.744-30.216-23.278-39.169-35.141-38.946-50.808-99.155-149.291-108.555-282.020-2.014-27.978 11.415-70.729 34.693-87.068 44.541-31.112 140.338-70.953 339.767-70.953 69.162 0 127.357 4.253 176.598 10.967-19.92 33.574-31.559 72.519-31.559 114.151-0.224 121.761 97.364 220.915 218.23 224.273z" />
<glyph unicode="&#xe916;" glyph-name="tree-dot" d="M325.079 448c0-49.373-40.024-89.397-89.397-89.397s-89.397 40.024-89.397 89.397c0 49.373 40.024 89.397 89.397 89.397s89.397-40.024 89.397-89.397zM601.397 448c0-49.373-40.024-89.397-89.397-89.397s-89.397 40.024-89.397 89.397c0 49.373 40.024 89.397 89.397 89.397s89.397-40.024 89.397-89.397zM877.714 448c0-49.373-40.024-89.397-89.397-89.397s-89.397 40.024-89.397 89.397c0 49.373 40.024 89.397 89.397 89.397s89.397-40.024 89.397-89.397z" />
<glyph unicode="&#xe917;" glyph-name="calendar" d="M877.714 731.429c20.114 0 36.571 16.457 36.571 36.571v109.714c0 20.114-16.457 36.571-36.571 36.571s-36.571-16.457-36.571-36.571v-109.714c0-20.114 16.457-36.571 36.571-36.571zM146.286 731.429c20.114 0 36.571 16.457 36.571 36.571v109.714c0 20.114-16.457 36.571-36.571 36.571s-36.571-16.457-36.571-36.571v-109.714c0-20.114 16.457-36.571 36.571-36.571zM969.143 822.857h-18.286v-51.2c0-38.4-27.429-71.314-65.829-76.8-40.229-3.657-76.8 25.6-80.457 65.829 0 1.829 0 5.486 0 7.314v54.857h-585.143v-51.2c0-38.4-27.429-71.314-65.829-76.8-40.229-3.657-76.8 25.6-80.457 65.829 0 1.829 0 5.486 0 7.314v54.857h-18.286c-31.086 0-54.857-23.771-54.857-54.857v-128c0-10.971 7.314-18.286 18.286-18.286h987.429c10.971 0 18.286 7.314 18.286 18.286v128c0 31.086-23.771 54.857-54.857 54.857zM0 36.571c0-31.086 23.771-54.857 54.857-54.857h914.286c31.086 0 54.857 23.771 54.857 54.857v530.286c0 10.971-7.314 18.286-18.286 18.286h-987.429c-10.971 0-18.286-7.314-18.286-18.286v-530.286zM731.429 493.714c0 10.971 7.314 18.286 18.286 18.286h182.857c10.971 0 18.286-7.314 18.286-18.286v-128c0-10.971-7.314-18.286-18.286-18.286h-182.857c-10.971 0-18.286 7.314-18.286 18.286v128zM731.429 201.143c0 10.971 7.314 18.286 18.286 18.286h182.857c10.971 0 18.286-7.314 18.286-18.286v-128c0-10.971-7.314-18.286-18.286-18.286h-182.857c-10.971 0-18.286 7.314-18.286 18.286v128zM402.286 493.714c0 10.971 7.314 18.286 18.286 18.286h182.857c10.971 0 18.286-7.314 18.286-18.286v-128c0-10.971-7.314-18.286-18.286-18.286h-182.857c-10.971 0-18.286 7.314-18.286 18.286v128zM402.286 201.143c0 10.971 7.314 18.286 18.286 18.286h182.857c10.971 0 18.286-7.314 18.286-18.286v-128c0-10.971-7.314-18.286-18.286-18.286h-182.857c-10.971 0-18.286 7.314-18.286 18.286v128zM73.143 493.714c0 10.971 7.314 18.286 18.286 18.286h182.857c10.971 0 18.286-7.314 18.286-18.286v-128c0-10.971-7.314-18.286-18.286-18.286h-182.857c-10.971 0-18.286 7.314-18.286 18.286v128zM73.143 201.143c0 10.971 7.314 18.286 18.286 18.286h182.857c10.971 0 18.286-7.314 18.286-18.286v-128c0-10.971-7.314-18.286-18.286-18.286h-182.857c-10.971 0-18.286 7.314-18.286 18.286v128z" />
<glyph unicode="&#xe918;" glyph-name="employee" d="M61.703 21.333c0-47.262 39.385-85.333 86.646-85.333h728.615c47.262 0 86.646 38.072 86.646 85.333 0 220.554-182.482 400.41-406.974 400.41h-89.272c-223.179 0-405.662-179.856-405.662-400.41zM711.549 685.621v74.831c0 110.277-87.959 199.549-198.236 199.549s-198.236-89.272-198.236-198.236v-74.831c0-110.277 87.959-199.549 198.236-199.549s198.236 89.272 198.236 198.236z" />
<glyph unicode="&#xe919;" glyph-name="review" d="M512 734.72c-349.298 0-512-286.72-512-286.72s161.564-286.72 512-286.72 512 286.72 512 286.72-163.84 286.72-512 286.72zM514.276 196.551c-138.809 0-251.449 112.64-251.449 251.449s112.64 251.449 251.449 251.449 252.587-112.64 252.587-251.449-113.778-251.449-252.587-251.449zM512 448l68.267 136.533c-19.342 9.102-42.098 14.791-64.853 14.791-83.058 0-151.324-67.129-151.324-151.324s67.129-151.324 151.324-151.324 150.187 68.267 150.187 151.324c0 7.964-1.138 15.929-2.276 23.893l-151.324-23.893z" />
<glyph unicode="&#xe91a;" glyph-name="building-type1" d="M295.76 120.153h89.286v-27.902h-89.286v27.902zM410.158 516.36v-396.207h2.79v404.578c0-2.79-2.79-5.58-2.79-8.371zM27.902 120.153v636.163c0 8.371 8.371 19.531 19.531 19.531h320.872c11.161 0 19.531-8.371 19.531-19.531v-223.215c2.79 13.951 13.951 25.112 27.902 30.692v192.523c0 25.112-19.531 47.433-47.433 47.433h-320.872c-25.112 0-47.433-19.531-47.433-47.433v-661.275h89.286v27.902h-61.384zM429.689 535.891h147.88c0 8.371 2.79 19.531 5.58 27.902h-150.67c-5.58 0-11.161 0-16.741-2.79v-36.272c0 5.58 5.58 11.161 13.951 11.161zM767.302 120.153h-354.354v-27.902h382.256v239.956c-8.371-2.79-19.531-2.79-27.902-2.79v-209.264zM382.256 120.153v0l2.79 407.368c0-2.79-2.79-8.371-2.79-11.161v-396.207zM410.158 120.153v396.207c0 2.79 0 5.58 2.79 8.371v36.272c-13.951-5.58-25.112-16.741-27.902-30.692v-407.368h-2.79v-27.902h30.692l-2.79 25.112zM89.286 650.289h58.594v58.594h-58.594v-58.594zM117.188 680.981h2.79v-2.79h-2.79v2.79zM234.376 650.289h58.594v58.594h-58.594v-58.594zM262.278 680.981h2.79v-2.79h-2.79v2.79zM89.286 533.101h58.594v58.594h-58.594v-58.594zM117.188 563.793h2.79v-2.79h-2.79v2.79zM234.376 533.101h58.594v58.594h-58.594v-58.594zM262.278 563.793h2.79v-2.79h-2.79v2.79zM89.286 415.913h58.594v58.594h-58.594v-58.594zM117.188 446.605h2.79v-2.79h-2.79v2.79zM234.376 415.913h58.594v58.594h-58.594v-58.594zM262.278 446.605h2.79v-2.79h-2.79v2.79zM502.234 415.913h58.594v58.594h-58.594v-58.594zM530.136 446.605h2.79v-2.79h-2.79v2.79zM502.234 268.033h58.594v58.594h-58.594v-58.594zM530.136 298.725h2.79v-2.79h-2.79v2.79zM647.324 268.033h58.594v58.594h-58.594v-58.594zM675.226 298.725h2.79v-2.79h-2.79v2.79zM89.286 326.627v-206.474h27.902v178.572h150.67v-178.572h27.902v206.474zM267.858 120.153h-178.572v-27.902h206.474v27.902zM602.681 519.15c0 5.58 0 11.161 0 13.951h-27.902c0-5.58 0-11.161 0-13.951 0-106.027 86.496-189.733 189.733-189.733 0 0 0 0 2.79 0v27.902c0 0 0 0-2.79 0-86.496 0-161.831 72.545-161.831 161.831zM887.281 393.591l19.531 19.531 8.371-8.371c25.112 30.692 39.063 72.545 39.063 114.398 0 106.027-86.496 189.733-189.733 189.733-89.286 0-164.621-64.174-184.153-147.88h30.692c19.531 69.755 80.916 119.978 156.251 119.978 89.286 0 161.831-72.545 161.831-161.831 0-78.125-58.594-145.090-133.929-159.041v-30.692c39.063 5.58 75.335 25.112 103.237 50.223l-11.161 13.951zM597.101 535.891h8.371c0 8.371 2.79 19.531 5.58 27.902h-30.692c-2.79-8.371-2.79-19.531-5.58-27.902h22.322zM795.204 360.109c-8.371-2.79-19.531-2.79-27.902-2.79v-27.902c8.371 0 19.531 0 27.902 2.79v27.902zM898.441 382.431l106.027-106.027 19.531 19.531-108.817 108.817c-2.79-8.371-11.161-13.951-16.741-22.322zM887.281 393.591l11.161-11.161c5.58 5.58 13.951 13.951 19.531 19.531l-8.371 8.371-22.322-16.741z" />
<glyph unicode="&#xe91b;" glyph-name="building-type2" d="M421.266 836.861c25.924 0 45.367-19.443 45.367-45.367v-732.354h-401.823v732.354c0 25.924 19.443 45.367 45.367 45.367h311.089zM421.266 901.671h-311.089c-64.81 0-110.177-45.367-110.177-110.177v-797.165h531.443v797.165c0 64.81-51.848 110.177-110.177 110.177zM913.823 532.253c25.924 0 45.367-19.443 45.367-45.367v-427.747h-401.823v434.228c0 25.924 19.443 45.367 45.367 45.367l311.089-6.481zM913.823 597.063h-311.089c-58.329 0-110.177-45.367-110.177-110.177v-492.557h531.443v499.038c-6.481 58.329-51.848 103.696-110.177 103.696zM116.658 785.013h77.772v-77.772h-77.772v77.772zM304.608 785.013h77.772v-77.772h-77.772v77.772zM116.658 635.949h77.772v-77.772h-77.772v77.772zM304.608 635.949h77.772v-77.772h-77.772v77.772zM116.658 486.886h77.772v-77.772h-77.772v77.772zM304.608 486.886h77.772v-77.772h-77.772v77.772zM641.62 486.886h77.772v-77.772h-77.772v77.772zM829.57 486.886h77.772v-77.772h-77.772v77.772zM641.62 298.937h77.772v-77.772h-77.772v77.772zM829.57 298.937h77.772v-77.772h-77.772v77.772zM311.089 59.139h-129.62v174.987h136.101l-6.481-174.987zM375.899 298.937h-259.241v-304.608h265.722l-6.481 304.608z" />
<glyph unicode="&#xe91c;" glyph-name="to-be-assigned" d="M442.207 224.443c0 19.993 5.271 35.078 15.994 45.438 10.723 10.178 26.354 15.449 46.711 15.449 19.811 0 35.078-5.271 45.984-15.631 10.905-10.542 16.176-25.446 16.176-45.075 0-18.902-5.453-33.624-16.358-44.53s-26.173-16.176-45.802-16.176c-19.993 0-35.442 5.271-46.347 15.813s-16.358 25.446-16.358 44.711zM549.078 346.581h-87.060l-18.175 348.967h123.592l-18.357-348.967zM512-46.915c-133.044 0-258.272 51.436-352.42 144.858-94.33 93.421-146.13 217.741-146.13 350.058s51.8 256.636 146.13 350.058c94.148 93.421 219.377 144.858 352.42 144.858s258.272-51.436 352.42-144.858c94.33-93.421 146.13-217.923 146.13-350.058s-51.982-256.636-146.13-350.058c-94.148-93.421-219.195-144.858-352.42-144.858zM512 833.863c-214.833 0-389.68-173.029-389.68-385.863s174.847-385.863 389.68-385.863c214.833 0 389.68 173.029 389.68 385.863 0 212.652-174.847 385.863-389.68 385.863z" />
<glyph unicode="&#xe91d;" glyph-name="swap-icon-1" d="M682.318 482.733c-15.274-17.367-12.973-45.613 4.394-60.888l181.617-161.112h-725.839c-23.853 0-43.521-19.668-43.521-43.521s19.668-43.521 43.521-43.521h725.839l-181.617-161.112c-17.367-17.367-19.668-43.521-4.394-60.888 17.367-17.367 43.521-19.668 60.888-4.394l265.52 237.273c21.97 17.785 18.622 49.17 0 63.189l-265.52 239.366c-17.157 15.274-45.613 13.182-60.888-4.394zM281.841 948.701l-265.52-235.181c-21.133-20.924-22.388-47.078 0-65.282l265.52-239.366c17.367-15.274 45.613-12.973 60.888 4.394 21.342 26.782 6.696 53.774-4.394 60.888l-181.617 161.112h723.747c23.853 0 43.521 19.668 43.521 43.521s-17.367 43.521-41.429 43.521h-725.63l181.617 161.112c17.367 17.367 19.668 43.521 4.394 60.888-17.576 17.367-43.73 19.668-61.097 4.394z" />
<glyph unicode="&#xe91e;" glyph-name="swap-icon-2" d="M546.733 277.682c-17.367 15.274-45.613 12.973-60.888-4.394l-161.112-181.617v725.839c0 23.853-19.668 43.521-43.521 43.521s-43.521-19.668-43.521-43.521v-725.839l-161.112 181.617c-17.367 17.367-43.521 19.668-60.888 4.394-17.367-17.367-19.668-43.521-4.394-60.888l237.273-265.52c17.785-21.97 49.17-18.622 63.189 0l239.366 265.52c15.274 17.157 13.182 45.613-4.394 60.888zM1012.701 678.159l-235.181 265.52c-20.924 21.133-47.078 22.388-65.282 0l-239.366-265.52c-15.274-17.367-12.973-45.613 4.394-60.888 26.782-21.342 53.774-6.696 60.888 4.394l161.112 181.617v-723.747c0-23.853 19.668-43.521 43.521-43.521s43.521 17.367 43.521 41.429v725.63l161.112-181.617c17.367-17.367 43.521-19.668 60.888-4.394 17.367 17.576 19.668 43.73 4.394 61.097z" />
<glyph unicode="&#xe91f;" glyph-name="notify" d="M629.205 752.124c-11.492 6.084-25.52 5.239-36.167-2.197-1.521-1.014-151.935-102.417-430.286-127.092-2.535-0.169-4.901-0.676-7.267-1.352h-104.276c-27.717 0-50.194-22.478-50.194-50.194v-157.174c0-27.717 22.478-50.194 50.194-50.194h2.873c30.252-40.899 32.618-85.685 35.153-132.838 1.352-25.689 2.704-52.053 8.957-77.573 3.887-15.717 17.915-26.872 34.139-26.872h63.039c10.309 0 20.112 4.563 26.703 12.337s9.633 18.253 7.943 28.393c-1.859 11.999-3.211 23.999-4.056 36.167 0.507 0.169 1.014 0.338 1.69 0.676l9.464 4.394c5.915 2.704 8.45 9.633 5.746 15.548l-18.76 40.392c-0.338 0.507-0.676 1.014-1.014 1.521-1.183 28.731-3.211 58.983-9.464 90.925 243.536-31.266 377.050-119.993 379.416-121.514 5.915-4.056 12.844-6.084 19.774-6.084 5.577 0 11.154 1.352 16.393 4.056 11.492 6.084 18.76 18.084 18.76 31.097v456.482c0 13.013-7.098 25.013-18.76 31.097zM577.827 324.373c-65.067 32.449-186.75 81.46-360.656 102.924v130.641c173.906 21.464 295.589 70.475 360.656 102.924v-336.489zM792.97 670.664c-10.309 7.267-24.506 4.732-31.773-5.746-7.267-10.309-4.732-24.506 5.746-31.773 45.631-31.773 72.841-83.995 72.841-139.429s-27.21-107.656-72.841-139.429c-10.309-7.267-12.844-21.464-5.746-31.773 4.394-6.422 11.492-9.802 18.76-9.802 4.563 0 9.126 1.352 13.013 4.056 57.8 40.392 92.446 106.473 92.446 176.779s-34.646 136.894-92.446 177.117zM881.191 765.137c-10.309 7.267-24.506 4.732-31.773-5.746-7.267-10.309-4.732-24.506 5.746-31.773 76.559-53.406 122.19-140.781 122.19-233.734s-45.631-180.497-122.19-233.734c-10.309-7.267-12.844-21.464-5.746-31.773 4.394-6.422 11.492-9.802 18.76-9.802 4.563 0 9.126 1.352 13.013 4.056 88.728 61.856 141.795 163.259 141.795 271.253s-52.898 209.397-141.795 271.253z" />
<glyph unicode="&#xe920;" glyph-name="copy-arrow-h" d="M3.167 210.474v464.495h612.289v190.021l416.99-416.99-416.99-416.99v179.464z" />
<glyph unicode="&#xe921;" glyph-name="copy-arrow-v" d="M279.753 963.167h464.495v-613.344h190.021l-416.99-416.99-416.99 416.99h179.464z" />
<glyph unicode="&#xe922;" glyph-name="list" d="M109.686 557.686c-30.424 0-56.444-10.608-77.661-32.025-21.417-21.217-32.025-47.237-32.025-77.661s10.608-56.444 32.025-77.661c21.417-21.417 47.237-32.025 77.661-32.025s56.444 10.608 77.661 32.025c21.417 21.417 32.025 47.237 32.025 77.661s-10.608 56.444-32.025 77.661c-21.217 21.417-47.237 32.025-77.661 32.025zM109.686 850.314c-30.424 0-56.444-10.608-77.661-32.025-21.417-21.417-32.025-47.237-32.025-77.661s10.608-56.444 32.025-77.661c21.417-21.417 47.237-32.025 77.661-32.025s56.444 10.608 77.661 32.025c21.417 21.417 32.025 47.237 32.025 77.661s-10.608 56.444-32.025 77.661c-21.217 21.417-47.037 32.025-77.661 32.025zM109.686 265.057c-30.424 0-56.444-10.608-77.661-32.025-21.417-21.217-32.025-47.237-32.025-77.661s10.608-56.444 32.025-77.661c21.417-21.417 47.237-32.025 77.661-32.025s56.444 10.608 77.661 32.025c21.417 21.417 32.025 47.237 32.025 77.661s-10.608 56.444-32.025 77.661c-21.217 21.417-47.037 32.025-77.661 32.025zM1018.596 808.281c-3.603 3.603-7.806 5.404-12.81 5.404h-694.943c-5.004 0-9.207-1.801-12.81-5.404s-5.404-7.806-5.404-12.81v-109.686c0-5.004 1.801-9.207 5.404-12.81s8.006-5.404 12.81-5.404h694.943c5.004 0 9.207 1.801 12.81 5.404s5.404 7.806 5.404 12.81v109.686c0 4.804-1.801 9.207-5.404 12.81zM1005.786 521.057h-694.943c-5.004 0-9.207-1.801-12.81-5.404s-5.404-7.806-5.404-12.81v-109.686c0-5.004 1.801-9.207 5.404-12.81s8.006-5.404 12.81-5.404h694.943c5.004 0 9.207 1.801 12.81 5.404s5.404 7.806 5.404 12.81v109.686c0 5.004-1.801 9.207-5.404 12.81s-7.806 5.404-12.81 5.404zM1005.786 228.629h-694.943c-5.004 0-9.207-1.801-12.81-5.404s-5.404-7.806-5.404-12.81v-109.686c0-5.004 1.801-9.207 5.404-12.81s8.006-5.404 12.81-5.404h694.943c5.004 0 9.207 1.801 12.81 5.404s5.404 7.806 5.404 12.81v109.686c0 5.004-1.801 9.207-5.404 12.81-3.603 3.403-7.806 5.404-12.81 5.404z" />
<glyph unicode="&#xe923;" glyph-name="location-marker-2" d="M520.192 746.698c-122.061 0-221.184-99.123-221.184-221.184 0-44.237 9.83-72.909 32.768-106.496l188.416-278.528 188.416 278.528c22.938 33.587 32.768 62.259 32.768 106.496 0 122.061-99.123 221.184-221.184 221.184v0zM520.192 632.010c54.067 0 98.304-44.237 98.304-98.304s-44.237-98.304-98.304-98.304-98.304 44.237-98.304 98.304c0 54.886 44.237 98.304 98.304 98.304z" />
<glyph unicode="&#xe924;" glyph-name="notification" d="M742.4 401.92v122.88c0 110.080-76.8 202.24-179.2 225.28v56.32h-102.4v-56.32c-102.4-23.040-179.2-115.2-179.2-225.28v-122.88c0-56.32-30.72-107.52-76.8-133.12v-76.8h614.4v76.8c-46.080 25.6-76.8 76.8-76.8 133.12zM512 89.6c43.52 0 76.8 33.28 76.8 76.8h-153.6c0-43.52 33.28-76.8 76.8-76.8z" />
<glyph unicode="&#xe925;" glyph-name="return" d="M1021.754 207.719c-38.175 166.175-161.684 399.719-529.965 446.877v148.211c0 31.439-17.965 58.386-47.158 69.614s-60.632 4.491-83.088-15.719l-334.596-336.842c-38.175-38.175-38.175-103.298 0-141.474l334.596-336.842c22.456-22.456 53.895-29.193 83.088-15.719 29.193 11.228 47.158 40.421 47.158 69.614v141.474c125.754 0 307.649-15.719 435.649-96.561 22.456-13.474 49.404-13.474 69.614 2.246 20.211 13.474 31.439 40.421 24.702 65.123z" />
<glyph unicode="&#xe926;" glyph-name="info" d="M512-64c-283.307 0-512 228.693-512 512s228.693 512 512 512 512-228.693 512-512-228.693-512-512-512zM512 857.6c-225.28 0-409.6-184.32-409.6-409.6s184.32-409.6 409.6-409.6 409.6 184.32 409.6 409.6-184.32 409.6-409.6 409.6zM453.973 676.693c0 34.133 20.48 54.613 58.027 54.613 40.96 0 58.027-17.067 58.027-54.613 0-17.067-3.413-30.72-13.653-40.96s-23.893-13.653-44.373-13.653c-40.96 0-58.027 17.067-58.027 54.613zM566.613 174.933h-109.227v399.36h109.227v-399.36z" />
<glyph unicode="&#xe927;" glyph-name="copy" horiz-adv-x="1022" d="M830.499 960h-427.961c-105.729 0-191.685-85.955-191.685-191.685v-2.018h-19.168c-105.729 0-191.685-85.955-191.685-191.685v-446.928c0-105.729 85.955-191.685 191.685-191.685h427.961c105.729 0 191.685 85.955 191.685 191.685v2.018h19.168c105.729 0 191.685 85.955 191.685 191.685v446.928c0 105.729-85.955 191.685-191.685 191.685zM710.444 127.685c0-50.040-40.758-90.798-90.798-90.798h-427.961c-50.040 0-90.798 40.758-90.798 90.798v446.928c0 50.040 40.758 90.798 90.798 90.798h428.163c50.040 0 90.798-40.758 90.798-90.798v-446.928zM921.297 321.387c0-50.040-40.758-90.798-90.798-90.798h-19.168v344.024c0 105.729-85.955 191.685-191.685 191.685h-307.906v2.018c0 50.040 40.758 90.798 90.798 90.798h427.961c50.040 0 90.798-40.758 90.798-90.798v-446.928z" />
</font>
</defs>
</svg>
