<?xml version="1.0" encoding="utf-8"?>
<!-- Generator: Adobe Illustrator 19.2.1, SVG Export Plug-In . SVG Version: 6.00 Build 0)  -->
<svg version="1.1" id="Layer_1" xmlns="http://www.w3.org/2000/svg" xmlns:xlink="http://www.w3.org/1999/xlink" x="0px" y="0px"
	 viewBox="0 0 83 83" style="enable-background:new 0 0 83 83;" xml:space="preserve">
<style type="text/css">
	.st0{clip-path:url(#SVGID_2_);fill:#65C8D0;}
</style>
<g>
	<g>
		<defs>
			<rect id="SVGID_1_" y="0" width="83" height="83"/>
		</defs>
		<clipPath id="SVGID_2_">
			<use xlink:href="#SVGID_1_"  style="overflow:visible;"/>
		</clipPath>
		<path class="st0" d="M70.8,12.1c-16.2-16.2-42.5-16.2-58.7,0s-16.2,42.5,0,58.7s42.5,16.2,58.7,0S87,28.2,70.8,12.1 M60.3,43.8
			c-0.6,0.6-1.5,1-2.4,1H45v13c0,0.9-0.4,1.8-1,2.4c-0.6,0.6-1.5,1-2.4,1c-1.9,0-3.4-1.5-3.4-3.4v-13h-13c-1.9,0-3.4-1.5-3.4-3.4
			s1.5-3.4,3.4-3.4h13V25c0-1.9,1.5-3.4,3.4-3.4S45,23.1,45,25v13h13c1.9,0,3.4,1.5,3.4,3.4C61.2,42.3,61,43.2,60.3,43.8"/>
	</g>
</g>
</svg>
