<?xml version="1.0" encoding="utf-8"?>
<!-- Generator: Adobe Illustrator 19.2.1, SVG Export Plug-In . SVG Version: 6.00 Build 0)  -->
<svg version="1.1" id="Layer_1" xmlns="http://www.w3.org/2000/svg" xmlns:xlink="http://www.w3.org/1999/xlink" x="0px" y="0px"
	 viewBox="0 0 40.2 40.2" style="enable-background:new 0 0 40.2 40.2;" xml:space="preserve">
<style type="text/css">
	.st0{display:none;fill:#EEEEEE;}
	.st1{display:none;fill:#DBDBDB;}
	.st2{fill:none;stroke:#3E87C4;stroke-width:2;stroke-miterlimit:10;}
	.st3{display:none;fill:#3E87C4;}
	.st4{font-family:'OpenSans-Bold';}
	.st5{font-size:15px;}
	.st6{fill:#3E87C4;}
</style>
<path class="st0" d="M2.9-6.4h24.5l13,12.9v30.3c0,1.6-1.3,2.9-2.9,2.9H2.9c-1.6,0-2.9-1.3-2.9-2.9V-3.5C0-5.1,1.3-6.4,2.9-6.4z"/>
<path class="st1" d="M40.2,6.6h-10c-1.6,0-2.9-1.3-2.9-2.9V-6.4L40.2,6.6z"/>
<path class="st2" d="M32.2,39.2H8c-3.8,0-7-3.2-7-7V8c0-3.8,3.2-7,7-7h24.3c3.8,0,7,3.2,7,7v24.3C39.2,36.1,36.1,39.2,32.2,39.2z"/>
<text transform="matrix(1 0 0 1 3.7921 25.3218)" class="st3 st4 st5">DOC</text>
<g>
	<path class="st6" d="M30.9,14.3H9.3c-0.6,0-1-0.5-1-1v0c0-0.6,0.5-1,1-1h21.7c0.6,0,1,0.5,1,1v0C31.9,13.8,31.5,14.3,30.9,14.3z"/>
	<path class="st6" d="M30.9,18.8H9.3c-0.6,0-1-0.5-1-1v0c0-0.6,0.5-1,1-1h21.7c0.6,0,1,0.5,1,1v0C31.9,18.4,31.5,18.8,30.9,18.8z"/>
	<path class="st6" d="M23.7,27.9H9.3c-0.6,0-1-0.5-1-1v0c0-0.6,0.5-1,1-1h14.4c0.6,0,1,0.5,1,1v0C24.7,27.5,24.2,27.9,23.7,27.9z"/>
	<path class="st6" d="M30.9,23.4H9.3c-0.6,0-1-0.5-1-1v0c0-0.6,0.5-1,1-1h21.7c0.6,0,1,0.5,1,1v0C31.9,22.9,31.5,23.4,30.9,23.4z"/>
</g>
</svg>
