<?xml version="1.0" encoding="utf-8"?>
<!-- Generator: Adobe Illustrator 19.2.1, SVG Export Plug-In . SVG Version: 6.00 Build 0)  -->
<svg version="1.1" id="Layer_1" xmlns="http://www.w3.org/2000/svg" xmlns:xlink="http://www.w3.org/1999/xlink" x="0px" y="0px"
	 viewBox="0 0 40.2 40.2" style="enable-background:new 0 0 40.2 40.2;" xml:space="preserve">
<style type="text/css">
	.st0{display:none;fill:#EEEEEE;}
	.st1{display:none;fill:#DBDBDB;}
	.st2{fill:#EE5B5B;}
	.st3{fill:none;stroke:#EF5B5B;stroke-width:2;stroke-miterlimit:10;}
</style>
<path class="st0" d="M2.9-6.4h24.5l13,12.9v30.3c0,1.6-1.3,2.9-2.9,2.9H2.9c-1.6,0-2.9-1.3-2.9-2.9V-3.5C0-5.1,1.3-6.4,2.9-6.4z"/>
<path class="st1" d="M40.2,6.6h-10c-1.6,0-2.9-1.3-2.9-2.9V-6.4L40.2,6.6z"/>
<path class="st2" d="M10.2,32.5c-0.8,0-1.4-0.5-1.7-0.7c-1-1.1-1-2.1-0.8-2.7c0.1-0.6,0.5-1.1,1-1.4c0.7-0.6,2.8-2,5.8-3.3
	c1.6-2.9,2.7-5.2,3.4-7.1c-1.3-2.4-1.7-4.3-1.8-5.3c-0.1-0.8-0.1-1.6,0.2-2.3c0.6-1.8,1.8-1.9,2.3-1.8c0.1,0,2.1,0.3,2.5,3.1
	c0,0.1,0.2,1.9-1.3,6.2c1,1.7,2.3,3.5,4.5,5.2c2,0,4.2,0.2,6.4,0.7c0.5,0.1,1,0.4,1.3,0.8c0.6,0.6,0.7,1.4,0.4,2.2l0,0
	c0,0-0.1,0.4-0.5,0.8c-0.6,0.9-1.8,1.1-2.8,0.6c-2.2-1.1-4-2.3-5.5-3.6c-3,0.1-5.7,0.8-7.9,1.7c-1,1.8-2.2,3.7-3.5,5.9
	c-0.3,0.4-0.6,0.7-1.1,0.9l0,0C10.8,32.4,10.5,32.5,10.2,32.5z M13,26.7c-1.7,0.9-2.9,1.7-3.4,2.1c-0.2,0.2-0.3,0.3-0.3,0.5
	c-0.1,0.4,0.1,0.8,0.5,1.3c0,0,0.3,0.3,0.7,0.2l0,0c0.1-0.1,0.2-0.1,0.3-0.3C11.6,29.1,12.4,27.9,13,26.7z M26.3,23.9
	c1,0.7,2.2,1.4,3.4,2.1c0.2,0.1,0.5,0.1,0.7-0.2c0.2-0.2,0.2-0.4,0.2-0.4c0.1-0.3,0.1-0.4-0.1-0.6c-0.1-0.1-0.3-0.2-0.5-0.3
	C28.8,24.2,27.6,24.1,26.3,23.9z M18.9,18.9c-0.6,1.3-1.3,2.8-2.2,4.5c1.5-0.5,3.2-0.9,5-1C20.6,21.2,19.7,20,18.9,18.9z M18.3,9.3
	c-0.2,0-0.4,0.2-0.6,0.7c-0.2,0.5-0.2,1-0.1,1.5c0.1,0.7,0.3,1.8,1,3.3c0.9-2.7,0.7-3.9,0.7-3.9C19.2,9.5,18.4,9.3,18.3,9.3
	L18.3,9.3z"/>
<path class="st3" d="M32.2,39.2H8c-3.8,0-7-3.2-7-7V8c0-3.8,3.2-7,7-7h24.3c3.8,0,7,3.2,7,7v24.3C39.2,36.1,36.1,39.2,32.2,39.2z"/>
</svg>
