<?xml version="1.0" encoding="utf-8"?>
<!-- Generator: Adobe Illustrator 19.2.1, SVG Export Plug-In . SVG Version: 6.00 Build 0)  -->
<svg version="1.1" id="Layer_1" xmlns="http://www.w3.org/2000/svg" xmlns:xlink="http://www.w3.org/1999/xlink" x="0px" y="0px"
	 viewBox="0 0 40.2 40.2" style="enable-background:new 0 0 40.2 40.2;" xml:space="preserve">
<style type="text/css">
	.st0{display:none;fill:#EEEEEE;}
	.st1{display:none;fill:#DBDBDB;}
	.st2{fill:none;stroke:#1CAF49;stroke-width:2;stroke-miterlimit:10;}
	.st3{fill:#22AD4A;}
</style>
<path class="st0" d="M2.9-6.4h24.5l13,12.9v30.3c0,1.6-1.3,2.9-2.9,2.9H2.9c-1.6,0-2.9-1.3-2.9-2.9V-3.5C0-5.1,1.3-6.4,2.9-6.4z"/>
<path class="st1" d="M40.2,6.6h-10c-1.6,0-2.9-1.3-2.9-2.9V-6.4L40.2,6.6z"/>
<path class="st2" d="M32.2,39.2H8c-3.8,0-7-3.2-7-7V8c0-3.8,3.2-7,7-7h24.3c3.8,0,7,3.2,7,7v24.3C39.2,36.1,36.1,39.2,32.2,39.2z"/>
<g>
	<g>
		<path class="st3" d="M18,12.1H6.8c-0.6,0-1-0.5-1-1v0c0-0.6,0.5-1,1-1H18c0.6,0,1,0.5,1,1v0C19,11.6,18.6,12.1,18,12.1z"/>
		<path class="st3" d="M18,16.6H6.8c-0.6,0-1-0.5-1-1v0c0-0.6,0.5-1,1-1H18c0.6,0,1,0.5,1,1v0C19,16.2,18.6,16.6,18,16.6z"/>
		<path class="st3" d="M18,21.2H6.8c-0.6,0-1-0.5-1-1v0c0-0.6,0.5-1,1-1H18c0.6,0,1,0.5,1,1v0C19,20.7,18.6,21.2,18,21.2z"/>
	</g>
	<g>
		<path class="st3" d="M33.4,12.1H22.2c-0.6,0-1-0.5-1-1v0c0-0.6,0.5-1,1-1h11.2c0.6,0,1,0.5,1,1v0C34.4,11.6,34,12.1,33.4,12.1z"/>
		<path class="st3" d="M33.4,16.6H22.2c-0.6,0-1-0.5-1-1v0c0-0.6,0.5-1,1-1h11.2c0.6,0,1,0.5,1,1v0C34.4,16.2,34,16.6,33.4,16.6z"/>
		<path class="st3" d="M33.4,21.2H22.2c-0.6,0-1-0.5-1-1v0c0-0.6,0.5-1,1-1h11.2c0.6,0,1,0.5,1,1v0C34.4,20.7,34,21.2,33.4,21.2z"/>
	</g>
	<g>
		<path class="st3" d="M18,25.6H6.8c-0.6,0-1-0.5-1-1v0c0-0.6,0.5-1,1-1H18c0.6,0,1,0.5,1,1v0C19,25.1,18.6,25.6,18,25.6z"/>
		<path class="st3" d="M18,30.1H6.8c-0.6,0-1-0.5-1-1v0c0-0.6,0.5-1,1-1H18c0.6,0,1,0.5,1,1v0C19,29.7,18.6,30.1,18,30.1z"/>
	</g>
	<g>
		<path class="st3" d="M33.4,25.6H22.2c-0.6,0-1-0.5-1-1v0c0-0.6,0.5-1,1-1h11.2c0.6,0,1,0.5,1,1v0C34.4,25.1,34,25.6,33.4,25.6z"/>
		<path class="st3" d="M33.4,30.1H22.2c-0.6,0-1-0.5-1-1v0c0-0.6,0.5-1,1-1h11.2c0.6,0,1,0.5,1,1v0C34.4,29.7,34,30.1,33.4,30.1z"/>
	</g>
</g>
</svg>
